<svg xmlns="http://www.w3.org/2000/svg" aria-hidden="true" style="position:absolute;width:0;height:0;overflow:hidden">
  <defs>
    <symbol id="facebook" viewBox="0 0 33 32">
      <path d="M20.108 16h-2.484v8.889H13.92V16h-1.743v-3.137h1.743v-2.048c0-1.438.697-3.704 3.704-3.704h2.745v3.05h-1.961c-.305 0-.784.174-.784.871v1.83h2.789l-.305 3.137z"/>
    </symbol>
    <symbol id="linkedin" viewBox="0 0 32 32">
      <path d="M24.888 17.917v6.564h-3.833v-6.133c0-1.533-.527-2.587-1.917-2.587-1.054 0-1.677.719-1.965 1.389-.096.24-.144.575-.144.91v6.421h-3.833s.048-10.397 0-11.452h3.833v1.629s0 .048-.048.048h.048v-.048c.527-.767 1.39-1.917 3.45-1.917 2.492 0 4.408 1.677 4.408 5.175zM9.267 7.519c-1.294 0-2.156.862-2.156 1.965s.815 1.964 2.108 1.964h.048c1.342 0 2.156-.862 2.156-1.964-.048-1.102-.862-1.965-2.156-1.965zM7.303 24.48h3.785V13.028H7.303V24.48z"/>
    </symbol>
    <symbol id="twitter" viewBox="0 0 32 32">
      <path d="M24.889 10.479c-.669.293-1.339.502-2.091.586.753-.46 1.339-1.171 1.59-2.008a7.695 7.695 0 0 1-2.301.878 3.696 3.696 0 0 0-2.677-1.171 3.641 3.641 0 0 0-3.639 3.639c0 .293.042.586.084.837-3.054-.167-5.731-1.59-7.529-3.807a3.471 3.471 0 0 0-.502 1.84c0 1.255.627 2.384 1.631 3.054a3.35 3.35 0 0 1-1.673-.46v.042c0 1.757 1.255 3.263 2.928 3.597a3.55 3.55 0 0 1-.962.125c-.251 0-.46-.042-.669-.084.46 1.464 1.799 2.51 3.43 2.552a7.374 7.374 0 0 1-4.518 1.548c-.293 0-.586 0-.878-.042a10.235 10.235 0 0 0 5.605 1.631c6.735 0 10.374-5.563 10.374-10.374v-.46a7.83 7.83 0 0 0 1.799-1.924z"/>
    </symbol>
    <symbol id="instagram" viewBox="0 0 31 32">
      <path d="M15.667 7.241c1.161.041 2.364.041 3.525.083 1.037.041 1.991.207 2.903.746 1.161.705 1.866 1.742 2.115 3.069.124.788.166 1.617.207 2.405.041 1.742 0 3.483 0 5.225 0 .912-.041 1.825-.332 2.695-.581 1.7-1.783 2.737-3.525 3.069-.788.166-1.617.166-2.405.207-1.742.041-3.442 0-5.184 0-.912 0-1.825-.041-2.696-.332-1.7-.581-2.737-1.783-3.069-3.525-.166-.788-.166-1.617-.207-2.405-.041-1.742 0-3.483 0-5.225 0-.912.041-1.825.332-2.695.581-1.7 1.783-2.737 3.525-3.069.788-.166 1.617-.166 2.405-.207s1.576-.041 2.405-.041zm7.175 8.583s-.041 0 0 0c-.041-.705-.041-1.369-.041-2.073 0-.663-.041-1.327-.124-1.991-.166-1.493-1.037-2.488-2.488-2.778-.746-.166-1.576-.166-2.322-.166a80.044 80.044 0 0 0-4.437 0c-.746 0-1.493.041-2.198.166-1.244.207-2.115.912-2.488 2.156-.124.415-.166.829-.207 1.244-.041 1.576-.041 3.152-.041 4.727 0 .995.041 2.032.124 3.027.124 1.493 1.037 2.53 2.53 2.778.746.124 1.534.166 2.322.166 1.451.041 2.903 0 4.396 0 .663 0 1.327-.041 1.991-.124a2.898 2.898 0 0 0 1.7-.663c.829-.663 1.12-1.534 1.161-2.53.083-1.244.083-2.571.124-3.94z"/>
      <path d="M20.146 15.992c0 2.488-1.991 4.479-4.479 4.479s-4.479-1.991-4.479-4.52c0-2.447 2.032-4.437 4.52-4.437 2.447 0 4.437 1.99 4.437 4.479zm-4.478 2.903c1.576 0 2.903-1.327 2.903-2.903s-1.327-2.903-2.903-2.903a2.912 2.912 0 0 0-2.903 2.903c-.041 1.576 1.286 2.903 2.903 2.903zM21.349 11.303c0 .581-.456 1.078-1.037 1.078s-1.078-.498-1.037-1.078c0-.581.456-1.037 1.037-1.037s1.037.456 1.037 1.037z"/>
    </symbol>
  </defs>
</svg>